<?xml version="1.0" encoding="UTF-8"?>
<svg xmlns="http://www.w3.org/2000/svg" viewBox="0 0 64 64" width="512" height="512">
  <defs>
    <linearGradient id="g1" x1="0" x2="1" y1="0" y2="1">
      <stop offset="0%" stop-color="#4fb3ff"/>
      <stop offset="100%" stop-color="#1a73e8"/>
    </linearGradient>
  </defs>
  <!-- Background circle -->
  <rect width="64" height="64" rx="10" fill="#ffffff"/>

  <!-- Sun -->
  <g transform="translate(14,14)">
    <circle cx="0" cy="0" r="10" fill="#FFD54A" />
    <g stroke="#FFB300" stroke-width="1.5" stroke-linecap="round">
      <line x1="0" y1="-14" x2="0" y2="-10" />
      <line x1="0" y1="14" x2="0" y2="10" />
      <line x1="-14" y1="0" x2="-10" y2="0" />
      <line x1="14" y1="0" x2="10" y2="0" />
      <line x1="-10" y1="-10" x2="-7" y2="-7" />
      <line x1="10" y1="10" x2="7" y2="7" />
      <line x1="-10" y1="10" x2="-7" y2="7" />
      <line x1="10" y1="-10" x2="7" y2="-7" />
    </g>
  </g>

  <!-- Solar panel -->
  <g transform="translate(6,30)">
    <rect x="0" y="0" width="52" height="20" rx="2" fill="url(#g1)" />
    <g stroke="#08306B" stroke-width="1" stroke-linecap="round">
      <line x1="4" y1="4" x2="48" y2="4" stroke-opacity="0.6"/>
      <line x1="4" y1="10" x2="48" y2="10" stroke-opacity="0.6"/>
      <line x1="4" y1="16" x2="48" y2="16" stroke-opacity="0.6"/>
      <line x1="12" y1="2" x2="12" y2="18" stroke-opacity="0.6"/>
      <line x1="24" y1="2" x2="24" y2="18" stroke-opacity="0.6"/>
      <line x1="36" y1="2" x2="36" y2="18" stroke-opacity="0.6"/>
    </g>
  </g>

  <!-- Text -->
  <text x="34" y="14" font-family="Arial, Helvetica, sans-serif" font-size="8" fill="#0b3d91">SmartSolar</text>

</svg>
